<svg width="1280" height="800" viewBox="0 0 1280 800" xmlns="http://www.w3.org/2000/svg">
  <defs>
    <!-- Background -->
    <linearGradient id="bg" x1="0%" y1="0%" x2="100%" y2="100%">
      <stop offset="0%" stop-color="#0B0F1A"/>
      <stop offset="40%" stop-color="#111827"/>
      <stop offset="100%" stop-color="#0a0e18"/>
    </linearGradient>
    <pattern id="dots" width="20" height="20" patternUnits="userSpaceOnUse">
      <circle cx="10" cy="10" r="0.5" fill="#ffffff" fill-opacity="0.035"/>
    </pattern>

    <!-- Ambient orbs -->
    <radialGradient id="orbBlue" cx="50%" cy="50%" r="50%">
      <stop offset="0%" stop-color="#3b82f6" stop-opacity="0.12"/>
      <stop offset="100%" stop-color="#3b82f6" stop-opacity="0"/>
    </radialGradient>
    <radialGradient id="orbGreen" cx="50%" cy="50%" r="50%">
      <stop offset="0%" stop-color="#10A37F" stop-opacity="0.08"/>
      <stop offset="100%" stop-color="#10A37F" stop-opacity="0"/>
    </radialGradient>
    <radialGradient id="orbOrange" cx="50%" cy="50%" r="50%">
      <stop offset="0%" stop-color="#D97757" stop-opacity="0.08"/>
      <stop offset="100%" stop-color="#D97757" stop-opacity="0"/>
    </radialGradient>

    <!-- Logo gradient -->
    <linearGradient id="logoBg" x1="0%" y1="0%" x2="100%" y2="100%">
      <stop offset="0%" stop-color="#3b82f6"/>
      <stop offset="100%" stop-color="#60a5fa"/>
    </linearGradient>

    <!-- Window shadow -->
    <filter id="winShadow" x="-3%" y="-2%" width="106%" height="112%">
      <feDropShadow dx="0" dy="6" stdDeviation="18" flood-color="#000000" flood-opacity="0.45"/>
    </filter>

    <!-- Screen glow behind window -->
    <radialGradient id="screenGlow" cx="50%" cy="45%" r="50%">
      <stop offset="0%" stop-color="#60A5FA" stop-opacity="0.06"/>
      <stop offset="100%" stop-color="#60A5FA" stop-opacity="0"/>
    </radialGradient>

    <!-- Arc glow -->
    <filter id="arcGlow">
      <feGaussianBlur in="SourceGraphic" stdDeviation="2.5"/>
    </filter>

    <!-- Window clip -->
    <clipPath id="winClip">
      <rect x="50" y="178" width="1180" height="478" rx="12"/>
    </clipPath>

    <!-- User message gradient -->
    <linearGradient id="userMsg" x1="0%" y1="0%" x2="100%" y2="100%">
      <stop offset="0%" stop-color="#1e3a5f"/>
      <stop offset="100%" stop-color="#1a2e4a"/>
    </linearGradient>
  </defs>

  <!-- ============ BACKGROUND ============ -->
  <rect width="1280" height="800" fill="url(#bg)"/>
  <rect width="1280" height="800" fill="url(#dots)"/>

  <!-- Ambient color orbs -->
  <ellipse cx="150" cy="350" rx="350" ry="300" fill="url(#orbOrange)"/>
  <ellipse cx="1130" cy="280" rx="350" ry="300" fill="url(#orbGreen)"/>
  <ellipse cx="640" cy="450" rx="500" ry="380" fill="url(#orbBlue)"/>

  <!-- Screen glow -->
  <ellipse cx="640" cy="400" rx="650" ry="350" fill="url(#screenGlow)"/>

  <!-- ============ TOP BRANDING ============ -->

  <!-- Logo icon (centered at 545, 68) -->
  <g transform="translate(545, 68)">
    <!-- Arcs glow -->
    <g opacity="0.3" filter="url(#arcGlow)">
      <path d="M -18 -30 A 35 35 0 0 1 0 -36" stroke="#D97757" stroke-width="4" fill="none" stroke-linecap="round"/>
      <path d="M 18 -30 A 35 35 0 0 0 0 -36" stroke="#10A37F" stroke-width="4" fill="none" stroke-linecap="round"/>
      <path d="M -22 22 A 42 42 0 0 0 22 22" stroke="#4285F4" stroke-width="4" fill="none" stroke-linecap="round"/>
    </g>
    <!-- Arcs crisp -->
    <path d="M -18 -30 A 35 35 0 0 1 0 -36" stroke="#D97757" stroke-width="2.8" fill="none" stroke-linecap="round"/>
    <path d="M 18 -30 A 35 35 0 0 0 0 -36" stroke="#10A37F" stroke-width="2.8" fill="none" stroke-linecap="round"/>
    <path d="M -22 22 A 42 42 0 0 0 22 22" stroke="#4285F4" stroke-width="2.8" fill="none" stroke-linecap="round"/>
    <!-- Inner arcs -->
    <path d="M -12 -22 A 22 22 0 0 1 0 -26" stroke="#D97757" stroke-width="2" fill="none" stroke-linecap="round"/>
    <path d="M 12 -22 A 22 22 0 0 0 0 -26" stroke="#10A37F" stroke-width="2" fill="none" stroke-linecap="round"/>
    <!-- Chat bubble -->
    <path d="M -8 -7 h 16 a 3 3 0 0 1 3 3 v 6 a 3 3 0 0 1 -3 3 h -9 l -4 4 v -4 h -3 a 3 3 0 0 1 -3 -3 v -6 a 3 3 0 0 1 3 -3 z"
          fill="#1E293B" stroke="#334155" stroke-width="1"/>
    <circle cx="-4" cy="-1" r="1.2" fill="#94A3B8"/>
    <circle cx="0" cy="-1" r="1.2" fill="#94A3B8"/>
    <circle cx="4" cy="-1" r="1.2" fill="#94A3B8"/>
  </g>

  <!-- Title -->
  <text x="640" y="125" font-family="'Space Grotesk', system-ui, -apple-system, sans-serif" font-weight="700" font-size="36" fill="#F1F5F9" text-anchor="middle" letter-spacing="1">
    <tspan>Chat</tspan>
    <tspan dx="3" fill="#60A5FA">Central</tspan>
  </text>
  <text x="640" y="148" font-family="'DM Sans', system-ui, -apple-system, sans-serif" font-size="13" fill="#64748B" text-anchor="middle" letter-spacing="2.5" font-weight="400">UNIFIED AI CONVERSATION MANAGER</text>

  <!-- ============ BROWSER WINDOW MOCKUP ============ -->
  <g filter="url(#winShadow)">
    <!-- Window frame -->
    <rect x="50" y="178" width="1180" height="478" rx="12" fill="#151b2b" stroke="#232d40" stroke-width="1"/>

    <!-- Title bar background -->
    <g clip-path="url(#winClip)">
      <rect x="50" y="178" width="1180" height="36" fill="#1a2030"/>
      <line x1="50" y1="214" x2="1230" y2="214" stroke="#232d40" stroke-width="0.5"/>
    </g>

    <!-- Traffic lights -->
    <circle cx="74" cy="196" r="5" fill="#FF5F57"/>
    <circle cx="92" cy="196" r="5" fill="#FEBC2E"/>
    <circle cx="110" cy="196" r="5" fill="#28C840"/>

    <!-- URL bar -->
    <rect x="200" y="186" width="860" height="20" rx="4" fill="#0e1220"/>
    <text x="630" y="200" font-family="'DM Sans', system-ui, sans-serif" font-size="10" fill="#3d4555" text-anchor="middle">chrome-extension://mkkjdicijdpjgbbbfldonopfjaflllad/manage.html</text>

    <!-- ======== WINDOW CONTENT ======== -->
    <g clip-path="url(#winClip)">

      <!-- Content background -->
      <rect x="50" y="214" width="1180" height="442" fill="#0c1018"/>

      <!-- SIDEBAR -->
      <rect x="50" y="214" width="145" height="442" fill="#111722"/>
      <line x1="195" y1="214" x2="195" y2="656" stroke="#1c2535" stroke-width="1"/>

      <!-- Sidebar: logo area -->
      <rect x="62" y="226" width="24" height="24" rx="6" fill="url(#logoBg)"/>
      <path d="M 70 233 h 8 a 2 2 0 0 1 2 2 v 4 a 2 2 0 0 1 -2 2 h -5 l -2 2 v -2 h -1 a 2 2 0 0 1 -2 -2 v -4 a 2 2 0 0 1 2 -2 z" fill="white" opacity="0.9"/>
      <text x="94" y="243" font-family="'Space Grotesk', system-ui, sans-serif" font-size="11" font-weight="700" fill="#F1F5F9">Chat <tspan fill="#60A5FA">Central</tspan></text>
      <line x1="62" y1="260" x2="182" y2="260" stroke="#1c2535" stroke-width="0.5"/>

      <!-- Nav: Conversations (active) -->
      <rect x="58" y="270" width="128" height="28" rx="7" fill="#3b82f6" fill-opacity="0.12"/>
      <!-- MessageSquare icon -->
      <g transform="translate(68, 278)" fill="none" stroke="#60A5FA" stroke-width="1.2" stroke-linecap="round" stroke-linejoin="round">
        <path d="M 0 1 h 9 a 1.5 1.5 0 0 1 1.5 1.5 v 5 a 1.5 1.5 0 0 1 -1.5 1.5 h -4 l -2.5 2.5 v -2.5 h -2.5 a 1.5 1.5 0 0 1 -1.5 -1.5 v -5 a 1.5 1.5 0 0 1 1.5 -1.5 z"/>
      </g>
      <text x="84" y="289" font-family="'DM Sans', system-ui, sans-serif" font-size="11" fill="#60A5FA" font-weight="600">Conversations</text>

      <!-- Nav: Settings -->
      <g transform="translate(68, 308)" fill="none" stroke="#505c70" stroke-width="1.2" stroke-linecap="round" stroke-linejoin="round">
        <circle cx="5.5" cy="7" r="4.5"/>
        <circle cx="5.5" cy="7" r="1.5" fill="none"/>
      </g>
      <text x="84" y="319" font-family="'DM Sans', system-ui, sans-serif" font-size="11" fill="#505c70">Settings</text>

      <!-- Nav: About -->
      <g transform="translate(68, 336)" fill="none" stroke="#505c70" stroke-width="1.2" stroke-linecap="round">
        <circle cx="5.5" cy="7" r="4.5"/>
      </g>
      <text x="72" y="347" font-family="'DM Sans', system-ui, sans-serif" font-size="7" fill="#505c70" font-weight="500">i</text>
      <text x="84" y="347" font-family="'DM Sans', system-ui, sans-serif" font-size="11" fill="#505c70">About</text>

      <!-- Tags section -->
      <line x1="62" y1="365" x2="182" y2="365" stroke="#1c2535" stroke-width="0.5"/>
      <text x="62" y="384" font-family="'DM Sans', system-ui, sans-serif" font-size="9" fill="#3d4555" font-weight="600" letter-spacing="1">TAGS</text>
      <text x="64" y="402" font-family="'DM Sans', system-ui, sans-serif" font-size="10" fill="#505c70"><tspan fill="#3d4555"># </tspan>research</text>
      <text x="64" y="418" font-family="'DM Sans', system-ui, sans-serif" font-size="10" fill="#505c70"><tspan fill="#3d4555"># </tspan>coding</text>
      <text x="64" y="434" font-family="'DM Sans', system-ui, sans-serif" font-size="10" fill="#505c70"><tspan fill="#3d4555"># </tspan>writing</text>
      <text x="64" y="450" font-family="'DM Sans', system-ui, sans-serif" font-size="10" fill="#505c70"><tspan fill="#3d4555"># </tspan>ideas</text>

      <!-- CONVERSATION LIST -->
      <rect x="207" y="226" width="295" height="418" rx="10" fill="#111722" stroke="#1c2535" stroke-width="0.8"/>

      <!-- Search bar -->
      <rect x="219" y="238" width="271" height="30" rx="8" fill="#0c1018" stroke="#1c2535" stroke-width="0.8"/>
      <g transform="translate(228, 247)" fill="none" stroke="#3d4555" stroke-width="1.2" stroke-linecap="round">
        <circle cx="5" cy="5" r="4"/>
        <line x1="8" y1="8" x2="11" y2="11"/>
      </g>
      <text x="245" y="257" font-family="'DM Sans', system-ui, sans-serif" font-size="11" fill="#3d4555">Search conversations...</text>

      <!-- Filter toolbar -->
      <rect x="219" y="276" width="168" height="22" rx="5" fill="#0c1018" stroke="#1c2535" stroke-width="0.6"/>
      <text x="230" y="291" font-family="'DM Sans', system-ui, sans-serif" font-size="9.5" fill="#505c70">All Platforms</text>
      <rect x="393" y="276" width="22" height="22" rx="5" fill="#0c1018" stroke="#1c2535" stroke-width="0.6"/>
      <!-- Calendar icon mini -->
      <rect x="398" y="280" width="12" height="10" rx="1.5" fill="none" stroke="#505c70" stroke-width="0.8"/>
      <line x1="398" y1="284" x2="410" y2="284" stroke="#505c70" stroke-width="0.6"/>
      <rect x="421" y="276" width="22" height="22" rx="5" fill="#0c1018" stroke="#1c2535" stroke-width="0.6"/>
      <!-- Star mini -->
      <path d="M 432 281 l 1.2 2.4 2.6 0.4 -1.9 1.8 0.4 2.6 -2.3 -1.2 -2.3 1.2 0.4 -2.6 -1.9 -1.8 2.6 -0.4 z" fill="none" stroke="#505c70" stroke-width="0.7"/>
      <rect x="449" y="276" width="22" height="22" rx="5" fill="#0c1018" stroke="#1c2535" stroke-width="0.6"/>
      <!-- Refresh mini -->
      <g transform="translate(454, 281)" fill="none" stroke="#505c70" stroke-width="0.8" stroke-linecap="round">
        <path d="M 1 4 A 5 5 0 0 1 9.5 2.5"/>
        <path d="M 11 8 A 5 5 0 0 1 2.5 9.5"/>
      </g>

      <!-- == Conversation Item 1: Claude (SELECTED) == -->
      <g transform="translate(207, 308)">
        <rect x="0" y="0" width="295" height="48" fill="#3b82f6" fill-opacity="0.06" rx="0"/>
        <rect x="0" y="3" width="3" height="42" rx="1.5" fill="#3b82f6"/>
        <line x1="12" y1="48" x2="283" y2="48" stroke="#1c2535" stroke-width="0.4"/>
        <!-- Platform dot -->
        <rect x="14" y="10" width="28" height="28" rx="7" fill="#D97757" fill-opacity="0.1"/>
        <circle cx="28" cy="24" r="4" fill="#D97757"/>
        <!-- Title + meta -->
        <text x="50" y="22" font-family="'DM Sans', system-ui, sans-serif" font-size="11.5" fill="#F1F5F9" font-weight="500">Help me debug React hooks</text>
        <text x="50" y="37" font-family="'DM Sans', system-ui, sans-serif" font-size="9.5" fill="#D97757">Claude</text>
        <text x="82" y="37" font-family="'DM Sans', system-ui, sans-serif" font-size="9.5" fill="#3d4555"> · 2h ago</text>
        <!-- Fav star -->
        <path d="M 270 18 l 1.2 2.4 2.6 0.4 -1.9 1.8 0.4 2.6 -2.3 -1.2 -2.3 1.2 0.4 -2.6 -1.9 -1.8 2.6 -0.4 z" fill="#fbbf24" stroke="#fbbf24" stroke-width="0.5"/>
      </g>

      <!-- == Conversation Item 2: ChatGPT == -->
      <g transform="translate(207, 356)">
        <line x1="12" y1="48" x2="283" y2="48" stroke="#1c2535" stroke-width="0.4"/>
        <rect x="14" y="10" width="28" height="28" rx="7" fill="#10A37F" fill-opacity="0.1"/>
        <circle cx="28" cy="24" r="4" fill="#10A37F"/>
        <text x="50" y="22" font-family="'DM Sans', system-ui, sans-serif" font-size="11.5" fill="#CBD5E1" font-weight="500">Explain quantum computing</text>
        <text x="50" y="37" font-family="'DM Sans', system-ui, sans-serif" font-size="9.5" fill="#10A37F">ChatGPT</text>
        <text x="92" y="37" font-family="'DM Sans', system-ui, sans-serif" font-size="9.5" fill="#3d4555"> · 5h ago</text>
      </g>

      <!-- == Conversation Item 3: Gemini == -->
      <g transform="translate(207, 404)">
        <line x1="12" y1="48" x2="283" y2="48" stroke="#1c2535" stroke-width="0.4"/>
        <rect x="14" y="10" width="28" height="28" rx="7" fill="#4285F4" fill-opacity="0.1"/>
        <circle cx="28" cy="24" r="4" fill="#4285F4"/>
        <text x="50" y="22" font-family="'DM Sans', system-ui, sans-serif" font-size="11.5" fill="#CBD5E1" font-weight="500">Write a Python web scraper</text>
        <text x="50" y="37" font-family="'DM Sans', system-ui, sans-serif" font-size="9.5" fill="#4285F4">Gemini</text>
        <text x="86" y="37" font-family="'DM Sans', system-ui, sans-serif" font-size="9.5" fill="#3d4555"> · Yesterday</text>
      </g>

      <!-- == Conversation Item 4: Claude == -->
      <g transform="translate(207, 452)">
        <line x1="12" y1="48" x2="283" y2="48" stroke="#1c2535" stroke-width="0.4"/>
        <rect x="14" y="10" width="28" height="28" rx="7" fill="#D97757" fill-opacity="0.1"/>
        <circle cx="28" cy="24" r="4" fill="#D97757"/>
        <text x="50" y="22" font-family="'DM Sans', system-ui, sans-serif" font-size="11.5" fill="#CBD5E1" font-weight="500">Design a REST API schema</text>
        <text x="50" y="37" font-family="'DM Sans', system-ui, sans-serif" font-size="9.5" fill="#D97757">Claude</text>
        <text x="82" y="37" font-family="'DM Sans', system-ui, sans-serif" font-size="9.5" fill="#3d4555"> · Yesterday</text>
        <!-- Tag -->
        <rect x="50" y="41" width="36" height="14" rx="3" fill="#3b82f6" fill-opacity="0.08"/>
        <text x="68" y="51" font-family="'DM Sans', system-ui, sans-serif" font-size="8" fill="#60A5FA" text-anchor="middle">coding</text>
      </g>

      <!-- == Conversation Item 5: ChatGPT == -->
      <g transform="translate(207, 500)">
        <line x1="12" y1="48" x2="283" y2="48" stroke="#1c2535" stroke-width="0.4"/>
        <rect x="14" y="10" width="28" height="28" rx="7" fill="#10A37F" fill-opacity="0.1"/>
        <circle cx="28" cy="24" r="4" fill="#10A37F"/>
        <text x="50" y="22" font-family="'DM Sans', system-ui, sans-serif" font-size="11.5" fill="#CBD5E1" font-weight="500">Trip planning for Tokyo</text>
        <text x="50" y="37" font-family="'DM Sans', system-ui, sans-serif" font-size="9.5" fill="#10A37F">ChatGPT</text>
        <text x="92" y="37" font-family="'DM Sans', system-ui, sans-serif" font-size="9.5" fill="#3d4555"> · 2 days ago</text>
      </g>

      <!-- == Conversation Item 6: Gemini == -->
      <g transform="translate(207, 548)">
        <line x1="12" y1="48" x2="283" y2="48" stroke="#1c2535" stroke-width="0.4"/>
        <rect x="14" y="10" width="28" height="28" rx="7" fill="#4285F4" fill-opacity="0.1"/>
        <circle cx="28" cy="24" r="4" fill="#4285F4"/>
        <text x="50" y="22" font-family="'DM Sans', system-ui, sans-serif" font-size="11.5" fill="#CBD5E1" font-weight="500">Summarize research paper</text>
        <text x="50" y="37" font-family="'DM Sans', system-ui, sans-serif" font-size="9.5" fill="#4285F4">Gemini</text>
        <text x="86" y="37" font-family="'DM Sans', system-ui, sans-serif" font-size="9.5" fill="#3d4555"> · 3 days ago</text>
        <!-- Tag -->
        <rect x="50" y="41" width="48" height="14" rx="3" fill="#3b82f6" fill-opacity="0.08"/>
        <text x="74" y="51" font-family="'DM Sans', system-ui, sans-serif" font-size="8" fill="#60A5FA" text-anchor="middle">research</text>
      </g>

      <!-- == Conversation Item 7: ChatGPT (partial) == -->
      <g transform="translate(207, 596)">
        <rect x="14" y="10" width="28" height="28" rx="7" fill="#10A37F" fill-opacity="0.1"/>
        <circle cx="28" cy="24" r="4" fill="#10A37F"/>
        <text x="50" y="22" font-family="'DM Sans', system-ui, sans-serif" font-size="11.5" fill="#CBD5E1" font-weight="500">Compare React vs Vue</text>
        <text x="50" y="37" font-family="'DM Sans', system-ui, sans-serif" font-size="9.5" fill="#10A37F">ChatGPT</text>
        <text x="92" y="37" font-family="'DM Sans', system-ui, sans-serif" font-size="9.5" fill="#3d4555"> · Last week</text>
      </g>

      <!-- CONVERSATION DETAIL -->
      <rect x="514" y="226" width="704" height="418" rx="10" fill="#111722" stroke="#1c2535" stroke-width="0.8"/>

      <!-- Detail header -->
      <!-- Platform icon -->
      <rect x="530" y="240" width="34" height="34" rx="8" fill="#D97757" fill-opacity="0.1"/>
      <circle cx="547" cy="257" r="5" fill="#D97757"/>

      <!-- Title -->
      <text x="574" y="254" font-family="'Space Grotesk', system-ui, sans-serif" font-size="15" fill="#F1F5F9" font-weight="600">Help me debug React hooks</text>

      <!-- Meta -->
      <text x="574" y="270" font-family="'DM Sans', system-ui, sans-serif" font-size="10" fill="#505c70">12 messages · Feb 14, 2026</text>

      <!-- Tags in header -->
      <rect x="750" y="259" width="40" height="15" rx="4" fill="#3b82f6" fill-opacity="0.08"/>
      <text x="770" y="270" font-family="'DM Sans', system-ui, sans-serif" font-size="8.5" fill="#60A5FA" text-anchor="middle">coding</text>

      <!-- Export button -->
      <rect x="1148" y="244" width="56" height="26" rx="6" fill="#0c1018" stroke="#1c2535" stroke-width="0.8"/>
      <text x="1176" y="261" font-family="'DM Sans', system-ui, sans-serif" font-size="10" fill="#505c70" text-anchor="middle">Export</text>

      <!-- Divider -->
      <line x1="530" y1="284" x2="1204" y2="284" stroke="#1c2535" stroke-width="0.5"/>

      <!-- == Messages == -->

      <!-- User message 1 -->
      <rect x="850" y="296" width="348" height="46" rx="10" fill="url(#userMsg)"/>
      <text x="866" y="314" font-family="'DM Sans', system-ui, sans-serif" font-size="11" fill="#CBD5E1">I'm having issues with useEffect cleanup.</text>
      <text x="866" y="330" font-family="'DM Sans', system-ui, sans-serif" font-size="11" fill="#CBD5E1">My state updates after component unmounts.</text>

      <!-- Assistant message 1 -->
      <rect x="530" y="354" width="500" height="100" rx="10" fill="#161d2d" stroke="#1c2535" stroke-width="0.5"/>
      <!-- Avatar -->
      <circle cx="547" cy="370" r="8" fill="#D97757" fill-opacity="0.12"/>
      <text x="547" y="374" font-family="'DM Sans', system-ui, sans-serif" font-size="8" fill="#D97757" text-anchor="middle" font-weight="600">C</text>
      <text x="562" y="374" font-family="'DM Sans', system-ui, sans-serif" font-size="10" fill="#D97757" font-weight="500">Claude</text>

      <text x="543" y="396" font-family="'DM Sans', system-ui, sans-serif" font-size="11" fill="#94A3B8">This is a common issue! You need to add a cleanup</text>
      <text x="543" y="412" font-family="'DM Sans', system-ui, sans-serif" font-size="11" fill="#94A3B8">function to your useEffect. Here's the pattern:</text>

      <!-- Code block -->
      <rect x="543" y="422" width="474" height="22" rx="4" fill="#0c1018"/>
      <text x="553" y="437" font-family="'SF Mono', 'Fira Code', monospace" font-size="10">
        <tspan fill="#60A5FA">useEffect</tspan><tspan fill="#CBD5E1">(() =&gt; { </tspan><tspan fill="#10A37F">let active = true</tspan><tspan fill="#CBD5E1">; ...</tspan>
      </text>

      <!-- User message 2 -->
      <rect x="870" y="468" width="328" height="32" rx="10" fill="url(#userMsg)"/>
      <text x="886" y="488" font-family="'DM Sans', system-ui, sans-serif" font-size="11" fill="#CBD5E1">That fixed it! Can you explain AbortController too?</text>

      <!-- Assistant message 2 -->
      <rect x="530" y="512" width="500" height="82" rx="10" fill="#161d2d" stroke="#1c2535" stroke-width="0.5"/>
      <circle cx="547" cy="528" r="8" fill="#D97757" fill-opacity="0.12"/>
      <text x="547" y="532" font-family="'DM Sans', system-ui, sans-serif" font-size="8" fill="#D97757" text-anchor="middle" font-weight="600">C</text>
      <text x="562" y="532" font-family="'DM Sans', system-ui, sans-serif" font-size="10" fill="#D97757" font-weight="500">Claude</text>

      <text x="543" y="554" font-family="'DM Sans', system-ui, sans-serif" font-size="11" fill="#94A3B8">AbortController is a built-in browser API that lets</text>
      <text x="543" y="570" font-family="'DM Sans', system-ui, sans-serif" font-size="11" fill="#94A3B8">you cancel async operations. It works perfectly with</text>
      <text x="543" y="586" font-family="'DM Sans', system-ui, sans-serif" font-size="11" fill="#94A3B8">fetch and useEffect cleanup functions...</text>

    </g><!-- end winClip -->
  </g><!-- end shadow group -->

  <!-- ============ BOTTOM SECTION ============ -->

  <!-- Platform badges -->
  <g transform="translate(640, 700)" text-anchor="middle">
    <!-- Claude -->
    <g transform="translate(-220, 0)">
      <rect x="-48" y="-14" width="96" height="28" rx="14" fill="#D97757" fill-opacity="0.08" stroke="#D97757" stroke-opacity="0.25" stroke-width="1"/>
      <circle cx="-28" cy="0" r="3.5" fill="#D97757"/>
      <text x="6" y="4" font-family="'DM Sans', system-ui, sans-serif" font-size="13" fill="#D97757" font-weight="500">Claude</text>
    </g>

    <!-- ChatGPT -->
    <g transform="translate(0, 0)">
      <rect x="-53" y="-14" width="106" height="28" rx="14" fill="#10A37F" fill-opacity="0.08" stroke="#10A37F" stroke-opacity="0.25" stroke-width="1"/>
      <circle cx="-33" cy="0" r="3.5" fill="#10A37F"/>
      <text x="4" y="4" font-family="'DM Sans', system-ui, sans-serif" font-size="13" fill="#10A37F" font-weight="500">ChatGPT</text>
    </g>

    <!-- Gemini -->
    <g transform="translate(220, 0)">
      <rect x="-48" y="-14" width="96" height="28" rx="14" fill="#4285F4" fill-opacity="0.08" stroke="#4285F4" stroke-opacity="0.25" stroke-width="1"/>
      <circle cx="-28" cy="0" r="3.5" fill="#4285F4"/>
      <text x="6" y="4" font-family="'DM Sans', system-ui, sans-serif" font-size="13" fill="#4285F4" font-weight="500">Gemini</text>
    </g>
  </g>

  <!-- Feature text -->
  <text x="640" y="750" font-family="'DM Sans', system-ui, sans-serif" font-size="13" fill="#3d4555" text-anchor="middle" letter-spacing="0.3">
    <tspan fill="#505c70">Auto Capture</tspan>
    <tspan dx="16" fill="#2a3244">·</tspan>
    <tspan dx="16" fill="#505c70">Full-Text Search</tspan>
    <tspan dx="16" fill="#2a3244">·</tspan>
    <tspan dx="16" fill="#505c70">Cloud Sync</tspan>
    <tspan dx="16" fill="#2a3244">·</tspan>
    <tspan dx="16" fill="#505c70">Import / Export</tspan>
    <tspan dx="16" fill="#2a3244">·</tspan>
    <tspan dx="16" fill="#505c70">Tags &amp; Favorites</tspan>
  </text>

  <!-- Subtle corner decorations - floating arcs -->
  <g opacity="0.12">
    <path d="M 30 30 A 40 40 0 0 1 60 15" stroke="#D97757" stroke-width="2" fill="none" stroke-linecap="round"/>
    <path d="M 1250 30 A 40 40 0 0 0 1220 15" stroke="#10A37F" stroke-width="2" fill="none" stroke-linecap="round"/>
    <path d="M 30 780 A 40 40 0 0 0 60 790" stroke="#4285F4" stroke-width="2" fill="none" stroke-linecap="round"/>
    <path d="M 1250 780 A 40 40 0 0 1 1220 790" stroke="#60A5FA" stroke-width="2" fill="none" stroke-linecap="round"/>
  </g>

</svg>
